<svg xmlns="http://www.w3.org/2000/svg" data-name="Layer 1" viewBox="0 0 64 80" x="0px" y="0px"><path d="M32,29.39c7.57,0,13.73-6.15,13.73-13.7S39.57,1.96,32,1.96s-13.7,6.16-13.7,13.73,6.15,13.7,13.7,13.7Zm0-25.43c6.47,0,11.73,5.26,11.73,11.73s-5.26,11.7-11.73,11.7-11.7-5.25-11.7-11.7S25.55,3.96,32,3.96Z"/><path d="M50.25,42.01c-4.63-5.21-11.28-8.19-18.25-8.19s-13.59,2.98-18.21,8.17c-4.65,5.23-6.86,12.21-6.05,19.16,.04,.34,.25,.64,.56,.79,.14,.07,.29,.1,.43,.1,.18,0,.37-.05,.53-.15,12.77-7.93,32.75-7.94,45.49,0,.29,.18,.65,.2,.96,.05,.31-.15,.52-.44,.56-.78,.82-6.94-1.37-13.92-6.01-19.15Zm-18.24,11.85c-7.93,0-15.87,1.84-22.42,5.51-.27-5.86,1.76-11.64,5.69-16.05,4.25-4.77,10.34-7.5,16.72-7.5s12.51,2.74,16.76,7.52c3.92,4.41,5.93,10.17,5.65,16.03-6.53-3.67-14.46-5.51-22.4-5.51Z"/><text x="0" y="79" fill="#000000" font-size="5px" font-weight="bold" font-family="'Helvetica Neue', Helvetica, Arial-Unicode, Arial, Sans-serif">Created by Fia Rahmadani</text><text x="0" y="84" fill="#000000" font-size="5px" font-weight="bold" font-family="'Helvetica Neue', Helvetica, Arial-Unicode, Arial, Sans-serif">from the Noun Project</text></svg>