<svg xmlns="http://www.w3.org/2000/svg" xmlns:xlink="http://www.w3.org/1999/xlink" viewBox="0 0 24 30" version="1.1" x="0px" y="0px"><title>i24_photoedit_finger_brush</title><desc>Created with Sketch.</desc><g stroke="none" stroke-width="1" fill="none" fill-rule="evenodd" transform="translate(-1000.000000, -923.000000)"><g transform="translate(1000.000000, 923.000000)" fill="#000000"><path d="M6.74702987,4.67035146 C8.38547195,2.44438116 11.0240593,1 14,1 C18.9705627,1 23,5.02943725 23,10 C23,12.8415353 21.6831406,15.3755017 19.6264057,17.0249152 L19.6281738,17.0266113 C15.2194267,20.5118372 12.9002535,22.3357305 12.6706543,22.498291 C10.7144775,23.8833008 11.8288765,21.5778228 10.7670898,21.3457031 C9.75512989,21.1244762 7.01477051,23.2528076 6.48840332,22.498291 C5.96203613,21.7437744 10.3898889,18.4304199 9.1184082,18.4412842 C7.32779772,18.4565842 2.22766113,23.1595459 1.65368652,22.498291 C0.789527217,21.5027251 4.9530101,18.4211417 4.28210449,17.7589111 C3.69230929,17.1767422 2.43847656,18.4168701 1.95739746,17.7589111 C1.67063023,17.3667073 3.5069761,14.6251683 2.91174316,13.9815405 C2.6159668,13.6617163 1.2253418,14.3551025 0.702026367,13.9815405 C0.00203516163,13.4818607 1.14629229,11.8783339 1.95739746,10.6801758 C2.07844223,10.5013694 3.67483708,8.49795144 6.74658203,4.66992188 L6.74702987,4.67035146 Z"/></g></g><text x="0" y="39" fill="#000000" font-size="5px" font-weight="bold" font-family="'Helvetica Neue', Helvetica, Arial-Unicode, Arial, Sans-serif">Created by Denis Klyuchnikov</text><text x="0" y="44" fill="#000000" font-size="5px" font-weight="bold" font-family="'Helvetica Neue', Helvetica, Arial-Unicode, Arial, Sans-serif">from the Noun Project</text></svg>